<svg width="32" height="32" viewBox="0 0 32 32" fill="none" xmlns="http://www.w3.org/2000/svg">
<path fill-rule="evenodd" clip-rule="evenodd" d="M2.66675 9.33341C2.66675 5.65152 5.65152 2.66675 9.33341 2.66675H22.6667C26.3486 2.66675 29.3334 5.65152 29.3334 9.33341V22.6667C29.3334 26.3486 26.3486 29.3334 22.6667 29.3334H9.33341C5.65152 29.3334 2.66675 26.3486 2.66675 22.6667V9.33341ZM9.33341 5.33341C7.12428 5.33341 5.33341 7.12428 5.33341 9.33341V22.6667C5.33341 24.8759 7.12428 26.6667 9.33341 26.6667H22.6667C24.8759 26.6667 26.6667 24.8759 26.6667 22.6667V9.33341C26.6667 7.12428 24.8759 5.33341 22.6667 5.33341H9.33341Z" fill="white"/>
<path fill-rule="evenodd" clip-rule="evenodd" d="M10.6666 17.3333C11.403 17.3333 11.9999 17.9302 11.9999 18.6666V21.3333C11.9999 22.0696 11.403 22.6666 10.6666 22.6666C9.93021 22.6666 9.33325 22.0696 9.33325 21.3333L9.33325 18.6666C9.33325 17.9302 9.93021 17.3333 10.6666 17.3333Z" fill="white"/>
<path fill-rule="evenodd" clip-rule="evenodd" d="M21.3333 9.33325C22.0697 9.33325 22.6667 9.93021 22.6667 10.6666L22.6667 21.3333C22.6667 22.0696 22.0697 22.6666 21.3333 22.6666C20.597 22.6666 20 22.0696 20 21.3333L20 10.6666C20 9.93021 20.597 9.33325 21.3333 9.33325Z" fill="white"/>
<path fill-rule="evenodd" clip-rule="evenodd" d="M16.0001 13.3333C16.7365 13.3333 17.3334 13.9302 17.3334 14.6666L17.3334 21.3333C17.3334 22.0696 16.7365 22.6666 16.0001 22.6666C15.2637 22.6666 14.6667 22.0696 14.6667 21.3333L14.6667 14.6666C14.6667 13.9302 15.2637 13.3333 16.0001 13.3333Z" fill="white"/>
</svg>
