<svg width="32" height="32" viewBox="0 0 32 32" fill="none" xmlns="http://www.w3.org/2000/svg">
<path fill-rule="evenodd" clip-rule="evenodd" d="M8.76294 4.38974C9.65137 4.08693 10.5815 4.00024 11.4039 4.00024C13.3569 4.00024 14.8294 4.83401 16.0007 5.67087C17.1813 4.8276 18.6439 4.00023 20.6199 4.00024C21.4983 4.00024 22.3969 4.12303 23.2677 4.41272C28.587 6.13576 30.3004 11.8628 28.8153 16.5672L28.809 16.587L28.8021 16.6066C27.9803 18.9527 26.6363 21.0954 24.8731 22.8483L24.8655 22.8559L24.8578 22.8633C22.3954 25.234 19.6303 27.3754 16.6864 29.1431L15.9914 29.5605L15.301 29.1355C12.3636 27.3271 9.65059 25.2432 7.15832 22.8532L7.14804 22.8433L7.13798 22.8333C5.38985 21.0837 4.04596 18.9567 3.21185 16.6128L3.20488 16.5932L3.19852 16.5734C1.68471 11.8587 3.40675 6.13858 8.76294 4.38974ZM11.4039 6.66691C10.7462 6.66691 10.1321 6.73937 9.61755 6.91577L9.60764 6.91916L9.59768 6.9224C6.01348 8.08851 4.5454 12.0156 5.73126 15.7386C6.43206 17.6986 7.55638 19.4763 9.01447 20.9385C11.1672 23.0015 13.496 24.8247 16.0075 26.4307C18.5108 24.8584 20.8734 22.9965 23.0004 20.9498C24.4661 19.4904 25.5889 17.7038 26.2784 15.7448C27.4479 12.0105 25.9701 8.08865 22.4418 6.94825L22.4299 6.94441L22.4299 6.94435C21.865 6.75591 21.2537 6.66691 20.6198 6.66691C19.1654 6.6669 18.16 7.36688 16.8066 8.39507L15.9987 9.00884L15.1918 8.39381C13.8599 7.37866 12.8324 6.66691 11.4039 6.66691Z" fill="white"/>
</svg>
