<svg width="32" height="32" viewBox="0 0 32 32" fill="none" xmlns="http://www.w3.org/2000/svg">
<path fill-rule="evenodd" clip-rule="evenodd" d="M26.2761 5.72378C26.7968 6.24448 26.7968 7.0887 26.2761 7.60939L7.60939 26.2761C7.0887 26.7968 6.24448 26.7968 5.72378 26.2761C5.20308 25.7554 5.20308 24.9111 5.72378 24.3904L24.3904 5.72378C24.9111 5.20308 25.7554 5.20308 26.2761 5.72378Z" fill="white"/>
<path fill-rule="evenodd" clip-rule="evenodd" d="M9.33333 6.66667C7.86057 6.66667 6.66667 7.86057 6.66667 9.33333C6.66667 10.8061 7.86057 12 9.33333 12C10.8061 12 12 10.8061 12 9.33333C12 7.86057 10.8061 6.66667 9.33333 6.66667ZM4 9.33333C4 6.38781 6.38781 4 9.33333 4C12.2789 4 14.6667 6.38781 14.6667 9.33333C14.6667 12.2789 12.2789 14.6667 9.33333 14.6667C6.38781 14.6667 4 12.2789 4 9.33333Z" fill="white"/>
<path fill-rule="evenodd" clip-rule="evenodd" d="M22.6666 19.9999C21.1938 19.9999 19.9999 21.1938 19.9999 22.6666C19.9999 24.1393 21.1938 25.3333 22.6666 25.3333C24.1393 25.3333 25.3333 24.1393 25.3333 22.6666C25.3333 21.1938 24.1393 19.9999 22.6666 19.9999ZM17.3333 22.6666C17.3333 19.7211 19.7211 17.3333 22.6666 17.3333C25.6121 17.3333 27.9999 19.7211 27.9999 22.6666C27.9999 25.6121 25.6121 27.9999 22.6666 27.9999C19.7211 27.9999 17.3333 25.6121 17.3333 22.6666Z" fill="white"/>
</svg>
