<svg width="32" height="32" viewBox="0 0 32 32" fill="none" xmlns="http://www.w3.org/2000/svg">
<path fill-rule="evenodd" clip-rule="evenodd" d="M4.00008 21.3333L11.9559 21.3333C12.6923 21.3333 13.2892 21.9302 13.2892 22.6666C13.2892 23.403 12.6923 23.9999 11.9559 23.9999L4.00008 23.9999C3.2637 23.9999 2.66675 23.403 2.66675 22.6666C2.66675 21.9302 3.2637 21.3333 4.00008 21.3333Z" fill="white"/>
<path fill-rule="evenodd" clip-rule="evenodd" d="M18.6667 9.33333C18.6667 8.59695 19.2637 8 20.0001 8H28.0001C28.7365 8 29.3334 8.59695 29.3334 9.33333C29.3334 10.0697 28.7365 10.6667 28.0001 10.6667H20.0001C19.2637 10.6667 18.6667 10.0697 18.6667 9.33333Z" fill="white"/>
<path fill-rule="evenodd" clip-rule="evenodd" d="M2.66675 9.33333C2.66675 8.59695 3.2637 8 4.00008 8H4.01341C4.74979 8 5.34675 8.59695 5.34675 9.33333C5.34675 10.0697 4.74979 10.6667 4.01341 10.6667H4.00008C3.2637 10.6667 2.66675 10.0697 2.66675 9.33333Z" fill="white"/>
<path fill-rule="evenodd" clip-rule="evenodd" d="M26.6667 22.6666C26.6667 21.9302 27.2637 21.3333 28.0001 21.3333H28.0134C28.7498 21.3333 29.3467 21.9302 29.3467 22.6666C29.3467 23.403 28.7498 23.9999 28.0134 23.9999H28.0001C27.2637 23.9999 26.6667 23.403 26.6667 22.6666Z" fill="white"/>
<path fill-rule="evenodd" clip-rule="evenodd" d="M19.9116 19.9999C18.458 19.9999 17.267 21.1869 17.267 22.6666C17.267 24.1463 18.458 25.3333 19.9116 25.3333C21.3652 25.3333 22.5561 24.1463 22.5561 22.6666C22.5561 21.1869 21.3652 19.9999 19.9116 19.9999ZM14.6003 22.6666C14.6003 19.728 16.9713 17.3333 19.9116 17.3333C22.8518 17.3333 25.2228 19.728 25.2228 22.6666C25.2228 25.6051 22.8518 27.9999 19.9116 27.9999C16.9713 27.9999 14.6003 25.6051 14.6003 22.6666Z" fill="white"/>
<path fill-rule="evenodd" clip-rule="evenodd" d="M11.9558 6.66667C10.5022 6.66667 9.3112 7.8536 9.3112 9.33333C9.3112 10.8131 10.5022 12 11.9558 12C13.4094 12 14.6003 10.8131 14.6003 9.33333C14.6003 7.8536 13.4094 6.66667 11.9558 6.66667ZM6.64453 9.33333C6.64453 6.39479 9.0155 4 11.9558 4C14.896 4 17.267 6.39479 17.267 9.33333C17.267 12.2719 14.896 14.6667 11.9558 14.6667C9.0155 14.6667 6.64453 12.2719 6.64453 9.33333Z" fill="white"/>
</svg>
