<svg width="24" height="24" viewBox="0 0 24 24" fill="none" xmlns="http://www.w3.org/2000/svg">
<path fill-rule="evenodd" clip-rule="evenodd" d="M13.9036 4.85661C12.7971 3.94819 11.2029 3.94819 10.0964 4.85661L4.73093 9.26159C4.2682 9.64148 4 10.2087 4 10.8074V17.9999C4 19.1045 4.89543 19.9999 6 19.9999H18C19.1046 19.9999 20 19.1045 20 17.9999V10.8074C20 10.2087 19.7318 9.64148 19.2691 9.26159L13.9036 4.85661ZM8.82732 3.31083C10.6715 1.79678 13.3285 1.79678 15.1727 3.31083L20.5381 7.71581C21.4636 8.47559 22 9.61 22 10.8074V17.9999C22 20.2091 20.2091 21.9999 18 21.9999H6C3.79086 21.9999 2 20.2091 2 17.9999V10.8074C2 9.61 2.53641 8.47559 3.46186 7.71581L8.82732 3.31083Z" fill="white"/>
<path fill-rule="evenodd" clip-rule="evenodd" d="M8 16C8 14.3431 9.34315 13 11 13H13C14.6569 13 16 14.3431 16 16V21H14V16C14 15.4477 13.5523 15 13 15H11C10.4477 15 10 15.4477 10 16V21H8V16Z" fill="white"/>
</svg>
