<svg width="32" height="32" viewBox="0 0 32 32" fill="none" xmlns="http://www.w3.org/2000/svg">
<path fill-rule="evenodd" clip-rule="evenodd" d="M13.3334 8.09581C11.9608 8.29393 10.6438 8.79637 9.48143 9.57304C7.94657 10.5986 6.7503 12.0563 6.04388 13.7617C5.33746 15.4672 5.15263 17.3438 5.51276 19.1543C5.87289 20.9648 6.7618 22.6278 8.06709 23.9331C9.37238 25.2384 11.0354 26.1273 12.8459 26.4874C14.6564 26.8475 16.533 26.6627 18.2385 25.9563C19.9439 25.2499 21.4016 24.0536 22.4271 22.5187C23.2038 21.3564 23.7062 20.0393 23.9044 18.6668H16.0001C14.5273 18.6668 13.3334 17.4728 13.3334 16.0001V8.09581ZM13.1706 5.42705C14.81 5.22105 16.0001 6.5793 16.0001 8.00009V16.0001H24.0001C25.4209 16.0001 26.7791 17.1902 26.5731 18.8296C26.3415 20.6728 25.6841 22.4443 24.6444 24.0003C23.3258 25.9737 21.4517 27.5117 19.259 28.42C17.0662 29.3282 14.6534 29.5659 12.3257 29.1028C9.9979 28.6398 7.8597 27.4969 6.18147 25.8187C4.50324 24.1405 3.36035 22.0023 2.89733 19.6745C2.43431 17.3467 2.67195 14.9339 3.5802 12.7412C4.48845 10.5485 6.02652 8.67436 7.99991 7.35579C9.5559 6.31611 11.3274 5.65866 13.1706 5.42705Z" fill="white"/>
<path fill-rule="evenodd" clip-rule="evenodd" d="M17.3333 5.33336C17.3333 3.92152 18.5233 2.5363 20.1852 2.77535C21.0637 2.90171 21.9249 3.13749 22.7485 3.47864C24.0427 4.01469 25.2186 4.8004 26.2091 5.79089C27.1995 6.78138 27.9853 7.95726 28.5213 9.2514C28.8625 10.075 29.0982 10.9363 29.2246 11.8147C29.4636 13.4767 28.0784 14.6667 26.6666 14.6667L18.7999 14.6667C17.9899 14.6667 17.3333 14.01 17.3333 13.2V5.33336ZM26.5547 12C26.4547 11.4085 26.2883 10.8287 26.0576 10.2719C25.6556 9.30129 25.0663 8.41937 24.3234 7.6765C23.5806 6.93364 22.6987 6.34436 21.7281 5.94232C21.1712 5.71167 20.5914 5.54524 19.9999 5.44525V12L26.5547 12Z" fill="white"/>
</svg>
