<svg width="35" height="38" viewBox="0 0 35 38" fill="none" xmlns="http://www.w3.org/2000/svg">
<path d="M16.4938 0.031578C20.1141 -0.184812 23.3611 0.70948 26.32 2.75871C26.3573 2.70725 26.3952 2.6562 26.4336 2.60547C28.6037 -0.262357 32.5773 1.24933 32.9309 4.56447C33.111 6.25265 32.2449 7.26842 31.2397 8.50592C31.6367 9.42492 32.2419 10.3938 32.6712 11.431C34.3951 15.595 35.5462 19.9904 34.7342 24.4848C33.9384 28.6695 31.4786 32.3698 27.8994 34.7665C25.1278 36.6549 22.0286 37.6861 18.6814 37.9386C18.3687 37.9622 18.0088 38.0346 17.7019 37.9802L17.7059 37.9022C18.0619 37.6436 18.8115 37.3946 19.2657 37.1675C19.9847 36.8081 20.7603 36.166 21.4382 35.845C22.2495 35.4606 23.307 35.1951 24.1803 34.8305C27.6472 33.3829 30.6377 30.5737 32.0895 27.1511C34.3029 21.9326 32.9263 16.364 30.7944 11.3704C30.3621 12.191 29.2484 14.5374 28.6746 15.0474C28.0002 15.2969 22.3666 15.2586 21.5912 15.0773C21.5789 15.1211 21.5663 15.1648 21.5534 15.2084C21.0666 16.8366 19.6133 17.7551 18.185 18.5186C18.4298 18.9119 18.6223 19.2095 18.9372 19.5522C20.4273 21.1738 23.0978 21.1725 24.361 19.2771C24.5637 18.9729 24.6274 18.6436 24.9122 18.3821C25.5015 17.8409 26.1791 18.1834 25.9827 18.9759C25.5508 20.5656 23.9554 21.7348 22.3525 22.0189C20.9517 22.267 19.4853 21.785 18.391 20.9229C18.0021 20.6164 17.7311 20.2899 17.4635 19.8742C16.914 20.6821 16.316 21.2242 15.4046 21.6311C14.2359 22.1636 12.899 22.2144 11.692 21.772C10.6043 21.362 9.64343 20.5076 9.17356 19.4567C8.92664 18.9043 8.79279 18.3614 9.45691 18.0896C10.1044 18.1344 10.2475 18.8152 10.617 19.3266C10.8601 19.6569 11.1582 19.9445 11.4986 20.1773C13.3661 21.4311 15.3816 20.5378 16.5566 18.8717C16.6276 18.7871 16.6513 18.7021 16.6914 18.5998C16.5537 18.3026 16.2633 18.2919 16.0087 18.126C14.7501 17.3055 13.8342 16.5485 13.3891 15.1349C12.2432 15.218 7.32984 15.3373 6.44924 15.1164C5.88859 14.9758 4.58394 12.009 4.19941 11.364C3.8986 12.1376 3.5281 12.876 3.25087 13.6747C2.19295 16.7225 1.40964 20.7138 1.94475 23.9154C2.5447 27.6694 4.66242 31.0256 7.81691 33.2217C13.7963 37.4136 18.7326 35.3192 23.0306 30.1168C23.5664 29.4681 23.9872 28.7127 24.4807 28.0296C24.0015 27.9198 21.9227 27.5013 21.7232 27.1522C21.8129 26.9432 27.6753 23.2595 28.2472 22.9044C28.3741 25.537 28.6183 28.1656 28.6887 30.8111C27.9875 30.4114 26.869 29.4884 26.1926 28.9604C25.9419 29.4971 25.346 30.3754 24.9786 30.8714C23.0737 33.4431 20.5868 35.6914 17.5302 36.8414C14.6243 37.9348 12.651 37.5682 9.86402 36.3442C5.79211 34.561 2.60631 31.2625 1.00582 27.1726C-1.13939 21.6281 0.442289 15.1125 2.97949 9.95843C3.22433 9.46112 3.50674 8.98329 3.73619 8.47858C2.77677 7.44617 2.03525 6.3518 2.03922 4.89381C2.04715 2.01753 5.05556 -0.041411 7.64362 1.75444C8.09253 2.06588 8.35114 2.33974 8.72896 2.73104C10.9737 1.02772 13.6855 0.218904 16.4938 0.031578ZM6.73003 7.03869C7.37708 6.93181 7.98421 6.96431 8.6363 6.96358C10.338 6.96173 12.0415 6.92712 13.7432 6.9468C14.1989 6.95209 14.8273 6.94423 15.21 7.20137C15.6914 7.52186 15.8016 8.14825 16.1287 8.56762C17.2653 8.33577 17.7077 8.3575 18.8677 8.52191C19.2231 7.97175 19.435 7.43963 19.9096 6.98505C21.0127 6.88498 22.906 6.95949 24.0752 6.96761C25.1136 6.97481 27.3213 6.897 28.268 7.02686C24.7962 2.80759 21.4667 1.48448 15.9766 1.75186C11.4149 2.51293 9.65593 3.5207 6.73003 7.03869ZM8.07412 13.761C8.67655 13.7475 9.27912 13.7398 9.88169 13.7377C10.6985 13.7385 12.0266 13.7832 12.8005 13.7346C13.5681 12.5581 14.2668 10.8752 15.0325 9.60973C14.4097 8.46233 14.4827 8.39449 13.1895 8.47316C12.0103 9.49474 10.6615 11.1266 9.54224 12.2518C9.05732 12.7393 8.60156 13.3102 8.07412 13.761ZM4.72404 7.06042L5.11966 6.44341C5.98159 5.25763 6.39138 4.76804 7.47618 3.76774C7.00551 3.36105 6.25223 2.69893 5.58307 2.73453C4.2707 2.88652 3.61646 4.03472 3.80231 5.25974C3.91398 5.99597 4.23831 6.51085 4.72404 7.06042ZM23.362 8.4764C22.7809 8.91651 21.3262 10.5633 20.7529 11.1887C20.9961 11.5963 21.3586 12.2449 21.6347 12.6052C21.8349 12.3791 22.0392 12.1412 22.2444 11.921C23.2439 10.8205 24.4945 9.47082 25.5649 8.43412C24.7992 8.48617 24.1277 8.48095 23.362 8.4764ZM27.5414 3.75836C28.3257 4.58871 29.3027 5.63308 29.948 6.57664C30.1302 6.81959 30.0911 6.85783 30.3223 6.90849C30.7029 6.73246 30.7917 6.48774 30.9489 6.12015C31.4302 4.99448 31.209 3.21487 29.8463 2.82106C29.6933 2.77687 29.4486 2.70844 29.2852 2.73011C28.4544 2.81796 28.1177 3.2049 27.5414 3.75836ZM6.48706 12.5598L7.22039 11.7469C7.92072 10.966 9.62791 9.11387 10.3912 8.45902C9.68408 8.47389 8.97676 8.47765 8.26957 8.47012C7.82403 8.73176 6.12215 10.5535 5.81347 11.0708C5.67929 11.2957 6.30571 12.2534 6.48706 12.5598ZM28.3806 8.46253C26.8706 9.66112 24.7399 12.5086 23.2541 13.7335L24.9997 13.7405L27.9404 13.7474L30.1013 9.59725C29.5848 8.53987 29.5834 8.40248 28.3806 8.46253ZM16.7314 9.85512C15.9943 10.2808 15.0869 12.732 14.4651 13.6539C15.5104 13.1938 17.1142 13.0097 18.2466 13.1593C19.0197 13.2492 19.7464 13.324 20.4799 13.5968C20.1336 12.9675 19.7811 12.2935 19.4526 11.6572C18.6363 10.0755 18.6756 9.62268 16.7314 9.85512Z" fill="#F3F1F2"/>
<path d="M16.7224 22L16.8721 22.0253C17.1074 22.323 16.8536 25.3768 16.9816 25.9728C17.0276 26.1866 16.9947 26.7394 16.7968 26.9078C16.2471 27.0228 14.4704 27.1034 14.1285 26.6834C13.732 25.9117 13.1857 24.1065 13 23.2886C14.8401 22.9939 15.1417 22.7772 16.7224 22Z" fill="#F3F1F2"/>
<path d="M17.0559 22C17.6893 22.3158 18.6682 22.7701 19.3553 23.0089C19.7471 23.1451 20.6149 23.1129 20.9553 23.4058C21.2028 23.9355 20.3533 25.7618 20.1044 26.3691C19.7117 27.2193 18.0265 26.9646 17 26.9631C17.0721 25.3355 16.9835 23.6577 17.0559 22Z" fill="#F3F1F2"/>
</svg>
